<svg aria-hidden="true" style="width:0;height:0;position:absolute;overflow:hidden" xmlns="http://www.w3.org/2000/svg"><defs><symbol id="light_bulb" viewBox="0 0 32 32"><path d="M18.613 19.931a5.755 5.755 0 0 0 3.102-2.014c.974-1.227 1.406-2.76 1.216-4.316s-.979-2.94-2.221-3.897c-1.203-.927-2.703-1.34-4.223-1.161s-2.883.928-3.838 2.109a5.76 5.76 0 0 0-1.292 3.532c-.042 2.107-.769 4.154-2.045 5.761l-1.397 1.759c-.62.78-.489 1.919.292 2.539l1.316 1.045a1.81 1.81 0 0 0 2.539-.292l1.396-1.759c1.29-1.626 3.068-2.772 5.153-3.307zm-6.51-5.732a5.018 5.018 0 0 1 1.126-3.079c1.715-2.121 4.868-2.492 7.027-.826 1.083.836 1.77 2.041 1.936 3.397s-.211 2.692-1.06 3.762a5.018 5.018 0 0 1-2.704 1.756c-2.196.563-4.084 1.755-5.469 3.451l-2.976-2.362c1.324-1.718 2.075-3.878 2.12-6.099zM8.657 21.97l.187-.236 2.71 2.707-.073.092a1.054 1.054 0 0 1-.126.132L8.657 21.97zm.653-.823.21-.265 2.981 2.366-.481.606-2.71-2.707zm-.638 2.513a1.063 1.063 0 0 1-.386-1.009l2.282 2.281a1.05 1.05 0 0 1-.579-.227L8.672 23.66z"/><path d="M13.933 12.455c.098-.171.212-.336.338-.492a.373.373 0 0 0-.579-.469c-.15.186-.286.383-.404.588a.372.372 0 1 0 .646.371zM12.133 18.247a.37.37 0 0 0 .581-.163 11.83 11.83 0 0 0 .729-3.858c.004-.218.028-.436.069-.647a.372.372 0 1 0-.731-.143c-.05.254-.078.514-.083.776a11.084 11.084 0 0 1-.683 3.616.371.371 0 0 0 .118.42zM19.437 17.736a.373.373 0 0 0-.504-.152 3.737 3.737 0 0 1-.838.326.372.372 0 0 0 .185.721c.352-.09.69-.222 1.006-.392a.373.373 0 0 0 .152-.504zM19.48 11.389a3.727 3.727 0 0 1 .371 5.495.372.372 0 1 0 .538.514 4.472 4.472 0 0 0-.447-6.592.372.372 0 1 0-.463.583zM21.176 9.252a.372.372 0 0 0 .523-.06l1.296-1.633a.372.372 0 1 0-.583-.463l-1.296 1.633a.372.372 0 0 0 .06.523zM17.768 7.487a.373.373 0 1 0 .737.109l.306-2.062a.372.372 0 1 0-.737-.109l-.306 2.062zM20.769 22.565l-.766-1.939a.372.372 0 1 0-.692.274l.766 1.939a.374.374 0 0 0 .483.21.372.372 0 0 0 .209-.483zM13.481 6.147l.766 1.939a.374.374 0 0 0 .483.21.372.372 0 0 0 .209-.483l-.766-1.939a.372.372 0 1 0-.692.274zM24.385 19.643l-1.633-1.296a.372.372 0 1 0-.463.583l1.633 1.296a.372.372 0 1 0 .463-.583zM12.022 10.305a.372.372 0 0 0-.06-.523l-1.633-1.296a.372.372 0 1 0-.463.583l1.633 1.296a.372.372 0 0 0 .523-.06zM23.708 15.659c.049.039.11.066.177.076l2.062.306a.372.372 0 1 0 .109-.737l-2.062-.306a.372.372 0 0 0-.286.661zM10.365 12.976l-2.062-.306a.372.372 0 1 0-.109.737l2.062.306a.372.372 0 1 0 .109-.737zM23.186 11.961a.374.374 0 0 0 .483.21l1.939-.766a.372.372 0 1 0-.274-.692l-1.939.766a.372.372 0 0 0-.209.483z"/></symbol><symbol id="menu" viewBox="0 0 56 32"><path fill="#39515e" style="fill:var(--color1,#39515e)" d="M1.882 0h52.706c1.04 0 1.882.843 1.882 1.882v1.882c0 1.04-.843 1.882-1.882 1.882H1.882A1.882 1.882 0 0 1 0 3.764V1.882C0 .842.843 0 1.882 0zM1.882 13.176h52.706c1.04 0 1.882.843 1.882 1.882v1.882c0 1.04-.843 1.882-1.882 1.882H1.882A1.882 1.882 0 0 1 0 16.94v-1.882c0-1.04.843-1.882 1.882-1.882zM1.882 26.353H38.06c1.04 0 1.882.843 1.882 1.882v1.882c0 1.04-.843 1.882-1.882 1.882H1.882A1.882 1.882 0 0 1 0 30.117v-1.882c0-1.04.843-1.882 1.882-1.882z"/></symbol></defs></svg>