<svg width="83" height="83" fill="none" xmlns="http://www.w3.org/2000/svg"><g clip-path="url('#clip0_581_2428')" fill="#000"><path d="M48.277 51.695a14.931 14.931 0 0 0 8.047-5.224 14.958 14.958 0 0 0 3.154-11.194 14.96 14.96 0 0 0-5.76-10.108c-3.12-2.405-7.01-3.475-10.952-3.01-3.943.463-7.478 2.406-9.956 5.47a14.923 14.923 0 0 0-3.35 9.16c-.11 5.466-1.993 10.774-5.304 14.944l-3.622 4.564a4.692 4.692 0 0 0 .757 6.585l3.415 2.71a4.692 4.692 0 0 0 6.585-.757l3.622-4.563c3.347-4.217 7.958-7.19 13.364-8.577ZM31.392 36.828a13.007 13.007 0 0 1 2.92-7.985c4.449-5.501 12.625-6.463 18.227-2.144a13.05 13.05 0 0 1 5.022 8.812 13.04 13.04 0 0 1-2.75 9.759 13.016 13.016 0 0 1-7.014 4.554c-5.696 1.46-10.593 4.553-14.184 8.952l-7.72-6.128c3.433-4.455 5.383-10.057 5.499-15.82Zm-8.938 20.157.486-.613 7.028 7.023-.19.24c-.1.125-.21.238-.327.341l-6.997-6.991Zm1.695-2.135.545-.687 7.73 6.136-1.247 1.573-7.028-7.022Zm-1.657 6.519a2.756 2.756 0 0 1-1.002-2.617l5.92 5.915a2.739 2.739 0 0 1-1.503-.588l-3.415-2.71Z"/><path d="M36.14 32.304c.255-.443.55-.872.876-1.275a.966.966 0 0 0-1.502-1.215c-.39.482-.742.995-1.048 1.525a.966.966 0 1 0 1.674.965ZM31.47 47.328a.967.967 0 0 0 1.508-.422 30.642 30.642 0 0 0 1.89-10.008 9.75 9.75 0 0 1 .18-1.68.966.966 0 0 0-1.896-.371 11.7 11.7 0 0 0-.215 2.012 28.715 28.715 0 0 1-1.772 9.378.966.966 0 0 0 .306 1.091ZM50.416 46.004a.966.966 0 0 0-1.308-.394 9.658 9.658 0 0 1-2.174.846.966.966 0 0 0 .48 1.871c.912-.234 1.79-.576 2.608-1.016a.966.966 0 0 0 .394-1.307ZM50.527 29.54c4.171 3.31 4.87 9.397 1.56 13.568a9.978 9.978 0 0 1-.596.685.966.966 0 0 0 1.397 1.334c.248-.26.487-.535.712-.818 3.973-5.005 3.133-12.31-1.872-16.282a.966.966 0 1 0-1.2 1.513ZM54.926 23.999a.966.966 0 0 0 1.357-.156l3.362-4.237a.966.966 0 0 0-1.513-1.2l-3.362 4.236a.966.966 0 0 0 .156 1.357ZM46.086 19.419a.965.965 0 1 0 1.911.283l.794-5.348a.966.966 0 1 0-1.91-.283l-.795 5.348ZM53.87 58.528 51.883 53.5a.965.965 0 1 0-1.797.71l1.987 5.028a.965.965 0 1 0 1.796-.71ZM34.967 15.944l1.987 5.028a.965.965 0 1 0 1.797-.71l-1.987-5.028a.966.966 0 1 0-1.797.71ZM63.249 50.95l-4.236-3.363a.966.966 0 0 0-1.201 1.513l4.236 3.363a.966.966 0 0 0 1.201-1.513ZM31.181 26.728a.966.966 0 0 0-.156-1.357L26.79 22.01a.966.966 0 0 0-1.2 1.513l4.236 3.362a.966.966 0 0 0 1.356-.156ZM61.494 40.616a.962.962 0 0 0 .458.198l5.348.794a.966.966 0 1 0 .283-1.91l-5.347-.794a.966.966 0 0 0-.742 1.712ZM26.885 33.657l-5.348-.794a.966.966 0 1 0-.283 1.911l5.348.794a.966.966 0 0 0 .283-1.91ZM60.14 31.025a.965.965 0 0 0 1.253.543l5.028-1.987a.966.966 0 1 0-.71-1.796l-5.029 1.987a.966.966 0 0 0-.543 1.253Z"/></g><defs><clipPath id="clip0_581_2428"><path fill="#fff" transform="rotate(38.441 18.25 52.344)" d="M0 0h58.706v58.706H0z"/></clipPath></defs></svg>