<svg aria-hidden="true" style="position: absolute; width: 0; height: 0; overflow: hidden;" version="1.1" xmlns="http://www.w3.org/2000/svg" xmlns:xlink="http://www.w3.org/1999/xlink">
<defs>
<symbol id="light_bulb" viewBox="0 0 32 32">
<path d="M18.613 19.931c1.235-0.317 2.308-1.013 3.102-2.014 0.974-1.227 1.406-2.76 1.216-4.316s-0.979-2.94-2.221-3.897c-1.203-0.927-2.703-1.34-4.223-1.161s-2.883 0.928-3.838 2.109c-0.819 1.013-1.265 2.234-1.292 3.532-0.042 2.107-0.769 4.154-2.045 5.761l-1.397 1.759c-0.62 0.78-0.489 1.919 0.292 2.539l1.316 1.045c0.78 0.619 1.919 0.488 2.539-0.292l1.396-1.759c1.29-1.626 3.068-2.772 5.153-3.307zM12.103 14.199c0.023-1.131 0.412-2.196 1.126-3.079 1.715-2.121 4.868-2.492 7.027-0.826 1.083 0.836 1.77 2.041 1.936 3.397s-0.211 2.692-1.060 3.762c-0.693 0.873-1.628 1.48-2.704 1.756-2.196 0.563-4.084 1.755-5.469 3.451l-2.976-2.362c1.324-1.718 2.075-3.878 2.12-6.099zM8.657 21.97l0.187-0.236 2.71 2.707-0.073 0.092c-0.039 0.049-0.081 0.092-0.126 0.132l-2.698-2.695zM9.31 21.147l0.21-0.265 2.981 2.366-0.481 0.606-2.71-2.707zM8.672 23.66c-0.313-0.249-0.448-0.64-0.386-1.009l2.282 2.281c-0.205-0.015-0.407-0.090-0.579-0.227l-1.317-1.045z"></path>
<path d="M13.933 12.455c0.098-0.171 0.212-0.336 0.338-0.492 0.129-0.16 0.105-0.394-0.055-0.524-0.159-0.128-0.394-0.105-0.524 0.055-0.15 0.186-0.286 0.383-0.404 0.588-0.093 0.162-0.051 0.365 0.091 0.477 0.014 0.011 0.030 0.022 0.046 0.031 0.178 0.103 0.406 0.041 0.509-0.137z"></path>
<path d="M12.133 18.247c0.030 0.024 0.065 0.044 0.103 0.058 0.193 0.071 0.407-0.028 0.478-0.221 0.457-1.24 0.702-2.538 0.729-3.858 0.004-0.218 0.028-0.436 0.069-0.647 0.040-0.202-0.092-0.398-0.294-0.437s-0.398 0.092-0.437 0.294c-0.050 0.254-0.078 0.514-0.083 0.776-0.025 1.238-0.255 2.454-0.683 3.616-0.057 0.155-0.005 0.323 0.118 0.42z"></path>
<path d="M19.437 17.736c-0.097-0.181-0.323-0.249-0.504-0.152-0.263 0.141-0.545 0.251-0.838 0.326-0.199 0.051-0.319 0.254-0.268 0.453 0.021 0.082 0.068 0.15 0.129 0.199 0.088 0.070 0.207 0.099 0.324 0.069 0.352-0.090 0.69-0.222 1.006-0.392 0.181-0.097 0.249-0.323 0.152-0.504z"></path>
<path d="M19.48 11.389c1.608 1.276 1.878 3.623 0.601 5.231-0.073 0.091-0.15 0.18-0.23 0.264-0.142 0.149-0.137 0.384 0.012 0.526 0.008 0.008 0.017 0.016 0.026 0.023 0.149 0.118 0.366 0.106 0.5-0.035 0.096-0.1 0.188-0.206 0.275-0.315 1.532-1.93 1.208-4.746-0.722-6.277-0.161-0.128-0.395-0.101-0.523 0.060s-0.101 0.395 0.060 0.523z"></path>
<path d="M21.176 9.252c0.161 0.128 0.395 0.101 0.523-0.060l1.296-1.633c0.128-0.161 0.101-0.395-0.060-0.523s-0.395-0.101-0.523 0.060l-1.296 1.633c-0.128 0.161-0.101 0.395 0.060 0.523z"></path>
<path d="M17.768 7.487c-0.020 0.137 0.036 0.267 0.137 0.347 0.049 0.039 0.11 0.066 0.177 0.076 0.203 0.030 0.393-0.11 0.423-0.314l0.306-2.062c0.030-0.204-0.11-0.393-0.314-0.423s-0.393 0.11-0.423 0.314l-0.306 2.062z"></path>
<path d="M20.769 22.565l-0.766-1.939c-0.076-0.191-0.292-0.285-0.483-0.209s-0.285 0.292-0.209 0.483l0.766 1.939c0.025 0.063 0.065 0.115 0.114 0.155 0.101 0.080 0.24 0.105 0.369 0.055 0.191-0.076 0.285-0.292 0.209-0.483z"></path>
<path d="M13.481 6.147l0.766 1.939c0.025 0.063 0.065 0.115 0.114 0.155 0.101 0.080 0.24 0.105 0.369 0.055 0.191-0.076 0.285-0.292 0.209-0.483l-0.766-1.939c-0.076-0.191-0.292-0.285-0.483-0.209s-0.285 0.292-0.209 0.483z"></path>
<path d="M24.385 19.643l-1.633-1.296c-0.161-0.128-0.395-0.101-0.523 0.060s-0.101 0.395 0.060 0.523l1.633 1.296c0.161 0.128 0.395 0.101 0.523-0.060s0.101-0.395-0.060-0.523z"></path>
<path d="M12.022 10.305c0.128-0.161 0.101-0.395-0.060-0.523l-1.633-1.296c-0.161-0.128-0.395-0.101-0.523 0.060s-0.101 0.395 0.060 0.523l1.633 1.296c0.161 0.128 0.395 0.101 0.523-0.060z"></path>
<path d="M23.708 15.659c0.049 0.039 0.11 0.066 0.177 0.076l2.062 0.306c0.203 0.030 0.393-0.11 0.423-0.314s-0.11-0.393-0.314-0.423l-2.062-0.306c-0.203-0.030-0.393 0.11-0.423 0.314-0.020 0.136 0.036 0.267 0.137 0.347z"></path>
<path d="M10.365 12.976l-2.062-0.306c-0.203-0.030-0.393 0.11-0.423 0.314-0.020 0.136 0.036 0.267 0.137 0.347 0.049 0.039 0.11 0.066 0.177 0.076l2.062 0.306c0.203 0.030 0.393-0.11 0.423-0.314s-0.11-0.393-0.314-0.423z"></path>
<path d="M23.186 11.961c0.025 0.063 0.065 0.115 0.114 0.155 0.101 0.080 0.24 0.105 0.369 0.055l1.939-0.766c0.191-0.076 0.285-0.292 0.209-0.483s-0.292-0.285-0.483-0.209l-1.939 0.766c-0.191 0.076-0.285 0.292-0.209 0.483z"></path>
</symbol>
<symbol id="menu" viewBox="0 0 56 32">
<path fill="#39515e" style="fill: var(--color1, #39515e)" d="M1.882 0h52.706c1.040 0 1.882 0.843 1.882 1.882v1.882c0 1.040-0.843 1.882-1.882 1.882h-52.706c-1.040 0-1.882-0.843-1.882-1.882v-1.882c0-1.040 0.843-1.882 1.882-1.882z"></path>
<path fill="#39515e" style="fill: var(--color1, #39515e)" d="M1.882 13.176h52.706c1.040 0 1.882 0.843 1.882 1.882v1.882c0 1.040-0.843 1.882-1.882 1.882h-52.706c-1.040 0-1.882-0.843-1.882-1.882v-1.882c0-1.040 0.843-1.882 1.882-1.882z"></path>
<path fill="#39515e" style="fill: var(--color1, #39515e)" d="M1.882 26.353h36.178c1.040 0 1.882 0.843 1.882 1.882v1.882c0 1.040-0.843 1.882-1.882 1.882h-36.178c-1.040 0-1.882-0.843-1.882-1.882v-1.882c0-1.040 0.843-1.882 1.882-1.882z"></path>
</symbol>
</defs>
</svg>
