<svg width="83" height="83" viewBox="0 0 83 83" fill="none" xmlns="http://www.w3.org/2000/svg">
<g clip-path="url(#clip0_581_2428)">
<path d="M48.2773 51.6951C51.4804 50.8737 54.2628 49.0671 56.3238 46.4706C58.8508 43.2871 59.9711 39.3116 59.4783 35.2766C58.9856 31.2424 56.9392 27.6506 53.7187 25.1693C50.5986 22.7638 46.7088 21.6944 42.766 22.1582C38.8234 22.6219 35.2877 24.5646 32.8102 27.6281C30.6864 30.2545 29.528 33.4224 29.4603 36.7894C29.3504 42.2555 27.4669 47.5626 24.1564 51.7332L20.5341 56.2966C18.9273 58.3208 19.2669 61.2748 21.2911 62.8816L24.7057 65.592C26.7299 67.1988 29.684 66.859 31.2907 64.8349L34.9128 60.2718C38.2599 56.0552 42.8713 53.0813 48.2773 51.6951ZM31.3916 36.8284C31.4505 33.894 32.4604 31.1327 34.3121 28.8428C38.7606 23.3418 46.9373 22.3802 52.5393 26.6991C55.348 28.8677 57.1313 31.994 57.5607 35.5109C57.9905 39.0286 57.0138 42.4944 54.8108 45.2698C53.014 47.5333 50.5889 49.1082 47.7974 49.8241C42.1013 51.2848 37.2043 54.3768 33.6125 58.7758L25.8928 52.6482C29.3258 48.1934 31.2758 42.5906 31.3916 36.8284ZM22.4539 56.9849L22.9401 56.3724L29.9679 63.3946L29.7778 63.6341C29.6778 63.7602 29.5671 63.8726 29.451 63.9762L22.4539 56.9849ZM24.1489 54.8496L24.694 54.1628L32.4248 60.2993L31.1767 61.8718L24.1489 54.8496ZM22.492 61.3687C21.6793 60.7237 21.3294 59.7094 21.4896 58.7518L27.4097 64.6673C26.8789 64.6275 26.3542 64.4343 25.9068 64.0791L22.492 61.3686L22.492 61.3687Z" fill="black"/>
<path d="M36.1397 32.3039C36.395 31.8612 36.6896 31.4322 37.0157 31.0291C37.3511 30.6144 37.2868 30.0063 36.8721 29.6708C36.46 29.3378 35.8493 29.3997 35.5138 29.8144C35.1243 30.2961 34.7718 30.8091 34.4661 31.3394C34.2241 31.7592 34.3329 32.285 34.7014 32.5775C34.7386 32.607 34.7783 32.6342 34.8206 32.6585C35.2828 32.9247 35.8733 32.7661 36.1397 32.3039Z" fill="black"/>
<path d="M31.4708 47.3281C31.5491 47.3903 31.6385 47.4412 31.7374 47.4778C32.2379 47.6623 32.7933 47.4062 32.9777 46.9058C34.1631 43.6908 34.799 40.3236 34.8678 36.8981C34.8792 36.3319 34.9395 35.7669 35.0472 35.2189C35.1499 34.6955 34.8088 34.1879 34.2854 34.0851C33.762 33.9824 33.2544 34.3235 33.1516 34.8469C33.0226 35.5045 32.9502 36.1814 32.9366 36.8593C32.8721 40.0695 32.2762 43.2248 31.1654 46.2375C31.0174 46.639 31.1529 47.0758 31.4708 47.3281Z" fill="black"/>
<path d="M50.4159 46.0035C50.1634 45.5336 49.5777 45.3574 49.108 45.6099C48.4265 45.9763 47.695 46.2609 46.9338 46.456C46.4171 46.5885 46.1057 47.1149 46.2381 47.6315C46.2925 47.8437 46.4134 48.0212 46.5726 48.1476C46.8013 48.3291 47.1091 48.4053 47.4137 48.3271C48.3259 48.0931 49.2036 47.7514 50.0224 47.3114C50.4923 47.0589 50.6686 46.4733 50.4159 46.0035Z" fill="black"/>
<path d="M50.5272 29.5398C54.6981 32.8505 55.3978 38.9373 52.0871 43.1082C51.8989 43.3453 51.6983 43.5756 51.491 43.7927C51.1226 44.1785 51.1366 44.7897 51.5223 45.1582C51.5441 45.1789 51.5665 45.1985 51.5897 45.2169C51.9764 45.5238 52.5402 45.4908 52.8878 45.1268C53.1356 44.8673 53.3753 44.5922 53.6 44.3091C57.5729 39.304 56.7333 31.9998 51.7282 28.0269C51.3104 27.6952 50.7028 27.7651 50.3712 28.1829C50.0396 28.6006 50.1094 29.2082 50.5272 29.5398Z" fill="black"/>
<path d="M54.9258 23.9986C55.3436 24.3302 55.9512 24.2604 56.2828 23.8426L59.6454 19.6064C59.977 19.1886 59.9072 18.581 59.4894 18.2494C59.0716 17.9178 58.4641 17.9877 58.1324 18.4054L54.7698 22.6417C54.4382 23.0594 54.5081 23.667 54.9258 23.9986Z" fill="black"/>
<path d="M46.0864 19.4186C46.0339 19.7727 46.1804 20.1101 46.4418 20.3176C46.5701 20.4194 46.7262 20.49 46.8999 20.5158C47.4275 20.5941 47.9188 20.2299 47.9971 19.7023L48.791 14.3545C48.8693 13.8267 48.5052 13.3355 47.9776 13.2573C47.45 13.179 46.9587 13.5431 46.8804 14.0707L46.0864 19.4186Z" fill="black"/>
<path d="M53.8697 58.528L51.8828 53.4998C51.6868 53.0036 51.1257 52.7604 50.6297 52.9566C50.1336 53.1525 49.8903 53.7136 50.0864 54.2097L52.0733 59.2379C52.1378 59.4012 52.2419 59.5371 52.3703 59.639C52.6317 59.8466 52.9937 59.9126 53.3265 59.7812C53.8225 59.5852 54.0657 59.024 53.8697 58.528Z" fill="black"/>
<path d="M34.9672 15.9437L36.9541 20.9719C37.0186 21.1352 37.1227 21.2711 37.2511 21.373C37.5125 21.5806 37.8746 21.6466 38.2073 21.5152C38.7034 21.3192 38.9467 20.7581 38.7506 20.262L36.7637 15.2338C36.5678 14.7376 36.0067 14.4944 35.5105 14.6905C35.0144 14.8865 34.7712 15.4475 34.9672 15.9437Z" fill="black"/>
<path d="M63.249 50.9497L59.0128 47.5871C58.595 47.2555 57.9875 47.3254 57.6559 47.7431C57.3243 48.1609 57.3941 48.7685 57.8119 49.1001L62.0481 52.4627C62.4659 52.7943 63.0734 52.7244 63.405 52.3067C63.7367 51.8889 63.6669 51.2814 63.249 50.9497Z" fill="black"/>
<path d="M31.1814 26.7284C31.513 26.3107 31.4432 25.7031 31.0254 25.3715L26.7892 22.0089C26.3714 21.6773 25.7639 21.7471 25.4322 22.1649C25.1006 22.5827 25.1705 23.1902 25.5883 23.5218L29.8245 26.8844C30.2424 27.2161 30.8498 27.1462 31.1814 26.7284Z" fill="black"/>
<path d="M61.4938 40.6162C61.6221 40.718 61.7781 40.7886 61.9518 40.8144L67.2997 41.6083C67.8273 41.6866 68.3186 41.3225 68.3969 40.7949C68.4752 40.2672 68.1109 39.7759 67.5834 39.6976L62.2356 38.9037C61.7079 38.8254 61.2166 39.1896 61.1383 39.7172C61.0858 40.0711 61.2324 40.4088 61.4938 40.6162Z" fill="black"/>
<path d="M26.8852 33.6573L21.5373 32.8634C21.0097 32.7851 20.5184 33.1492 20.4401 33.6768C20.3876 34.0307 20.5341 34.3683 20.7955 34.5758C20.9238 34.6777 21.0799 34.7483 21.2536 34.774L26.6015 35.568C27.1291 35.6463 27.6204 35.2821 27.6987 34.7545C27.7771 34.2269 27.4126 33.7355 26.8852 33.6573Z" fill="black"/>
<path d="M60.1392 31.0248C60.2037 31.1882 60.3078 31.3241 60.4362 31.426C60.6976 31.6335 61.0597 31.6996 61.3924 31.5681L66.4206 29.5812C66.9166 29.3853 67.1598 28.8241 66.9638 28.3281C66.7679 27.8321 66.2068 27.5887 65.7106 27.7848L60.6825 29.7717C60.1864 29.9676 59.9432 30.5288 60.1392 31.0248Z" fill="black"/>
</g>
<defs>
<clipPath id="clip0_581_2428">
<rect width="58.7065" height="58.7065" fill="white" transform="translate(36.4985) rotate(38.4415)"/>
</clipPath>
</defs>
</svg>
